<svg id="Layer_1" enable-background="new 0 0 100 100" height="100" viewBox="0 0 100 100" width="100" xmlns="http://www.w3.org/2000/svg" fill="white"><g><path d="m67.053 59.717c-1.535-4.168-4.512-8.6-8.437-12.524-.904-.904-1.834-1.749-2.776-2.542 1.962-2.791 4.127-6.529 5.656-11.048.266-.785-.155-1.636-.94-1.902-.79-.267-1.637.155-1.902.94-1.391 4.11-3.381 7.56-5.191 10.151-3.269-2.364-6.611-4.014-9.646-4.741-1.113-4.718-3.403-10.313-8.071-14.865-.593-.579-1.542-.567-2.121.026s-.567 1.542.026 2.121c3.789 3.695 5.829 8.256 6.927 12.296-.02 0-.041-.002-.06-.002-2.206 0-4.06.669-5.384 1.926-.009.007-.017.015-.025.022-.03.029-.064.055-.094.084-.017.017-.029.039-.046.056-.031.034-.06.069-.088.106-.785.837-1.338 1.855-1.634 3.041l-12.883 24.383c-.002.003-.003.007-.005.01l-12.634 23.909c-.293.555-.21 1.234.209 1.702.29.324.699.499 1.118.499.185 0 .372-.034.55-.105l23.361-9.226 28.452-11.236c1.921-.142 3.539-.819 4.714-1.983.004-.004.01-.009.014-.013.002-.002.005-.004.007-.006.051-.051.088-.113.137-.166.013-.017.029-.031.041-.048 1.575-1.717 2.162-4.204 1.704-7.22 3.184 1.408 6.448 3.722 9.194 7.487.294.403.75.616 1.213.616.307 0 .616-.094.883-.288.669-.488.816-1.427.328-2.096-3.775-5.173-8.354-7.93-12.597-9.364zm-33.075-9.32c1.496 4.265 4.539 8.833 8.57 12.864 4.142 4.143 8.792 7.177 13.018 8.622l-9.438 3.728c-17.76-5.976-14.134-22.942-13.666-24.837l1.035-1.959c.134.516.291 1.042.481 1.582zm-1.639 30.658c-9.393-2.139-9.304-10.968-9.198-12.646l5.802-10.981c.275 6.313 2.731 15.008 13.097 19.795zm-11.711-7.889c.771 3.294 2.708 7.303 7.435 9.578l-15.792 6.236zm43.554-4.686-3.387 1.337c-.052.001-.096.01-.149.01-4.429 0-10.701-3.41-15.978-8.688-3.719-3.719-6.51-7.887-7.86-11.735-.757-2.16-.989-4.059-.706-5.523l1.163-2.201c.763-.691 1.849-1.053 3.254-1.053.242 0 .491.015.743.035.722 4.03.556 6.996.552 7.059-.053.826.573 1.54 1.398 1.594.034.002.067.003.1.003.783 0 1.442-.607 1.495-1.399.017-.253.169-2.888-.366-6.574 2.279.753 4.762 2.077 7.217 3.846-1.492 1.846-2.585 2.88-2.612 2.904-.607.563-.644 1.511-.082 2.119.296.32.698.481 1.102.481.364 0 .728-.131 1.017-.397.117-.107 1.329-1.249 2.947-3.25.838.71 1.664 1.463 2.466 2.265 2.991 2.991 5.366 6.27 6.89 9.442-5.11-.959-9.077-.226-9.398-.163-.813.16-1.343.948-1.184 1.761.16.813.954 1.345 1.761 1.184.079-.016 4.635-.853 10.144.648.765 2.772.579 5.007-.527 6.295z"/><path d="m79.798 47.959 6.333-2.707c.62-.265.987-.911.897-1.579s-.614-1.194-1.281-1.287l-5.53-.765-1.126-6.904c-.104-.635-.6-1.133-1.234-1.238-.629-.102-1.265.205-1.568.771l-2.917 5.44-6.367-1.408c-.636-.14-1.296.149-1.624.716-.327.567-.248 1.281.195 1.764l4.317 4.702-3.452 5.546c-.355.571-.287 1.309.167 1.806.455.496 1.183.629 1.784.325l5.908-2.991 4.052 4.969c.292.358.723.552 1.163.552.216 0 .435-.047.64-.144.623-.294.966-.976.83-1.652zm-2.3-2.279c-.653.279-1.021.978-.881 1.675l.237 1.178-.99-1.214c-.293-.359-.724-.552-1.163-.552-.229 0-.461.053-.677.162l-2.199 1.114 1.22-1.96c.356-.572.287-1.311-.168-1.807l-1.868-2.035 2.828.625c.653.145 1.329-.165 1.646-.756l1.363-2.542.592 3.63c.106.65.623 1.154 1.275 1.245l1.272.176z"/><path d="m47.728 21.685c1.434.211 2.801 2.876 3.238 4.135.21.608.782 1.01 1.417 1.01.042 0 .085-.002.127-.005.685-.058 1.243-.574 1.354-1.252.248-1.517 2.605-3.287 4.03-4.045.61-.322.921-1.018.755-1.687s-.767-1.139-1.456-1.139c-1.793 0-3.064-2.993-3.367-4.039-.205-.72-.903-1.179-1.65-1.075-.741.104-1.292.737-1.292 1.486 0 .853-1.975 2.742-3.74 3.86-.53.335-.795.966-.665 1.579s.628 1.081 1.249 1.172zm4.576-3.199c.452.722 1.024 1.451 1.731 2.032-.539.437-1.094.95-1.587 1.527-.451-.715-1.016-1.45-1.695-2.05.518-.437 1.064-.948 1.551-1.509z"/><path d="m65.978 27.972h3v1.735h-3z" transform="matrix(.397 .918 -.918 .397 67.176 -44.542)"/><path d="m76.412 59.786h3.46v3h-3.46z" transform="matrix(-.716 -.698 .698 -.716 91.329 159.715)"/><path d="m28.974 31.794h5.049v3h-5.049z" transform="matrix(.938 .347 -.347 .938 13.495 -8.855)"/><path d="m48.565 29.528h3v3.767h-3z"/><path d="m70.978 69.828c-2.318 0-4.204 1.886-4.204 4.203 0 2.318 1.886 4.204 4.204 4.204s4.204-1.886 4.204-4.204c0-2.317-1.886-4.203-4.204-4.203zm0 5.407c-.664 0-1.204-.54-1.204-1.204s.54-1.203 1.204-1.203 1.204.54 1.204 1.203-.54 1.204-1.204 1.204z"/><path d="m91.216 53.109c-.587-.586-1.536-.585-2.121.002-.585.586-.584 1.536.002 2.121.227.227.352.528.352.85 0 .664-.54 1.204-1.204 1.204s-1.204-.54-1.204-1.204c0-.829-.671-1.5-1.5-1.5s-1.5.671-1.5 1.5c0 2.318 1.886 4.204 4.204 4.204s4.204-1.886 4.204-4.204c0-1.124-.438-2.179-1.233-2.973z"/><path d="m36.359 10.617c.887-.045 1.729.291 2.336.923.558.58.856 1.343.839 2.147-.016.805-.345 1.556-.926 2.114-.502.482-1.134.769-1.827.829-.826.071-1.437.798-1.366 1.623.067.782.723 1.372 1.493 1.372.043 0 .086-.002.13-.005 1.364-.118 2.66-.705 3.648-1.654 1.159-1.113 1.815-2.61 1.847-4.216.033-1.606-.563-3.129-1.676-4.287-1.211-1.262-2.908-1.931-4.657-1.84-.827.043-1.463.75-1.419 1.577.046.826.771 1.465 1.578 1.417z"/><path d="m71.668 15.017c.03.012 3.008 1.237 3.533 3.866.6 3.006 2.802 5.056 6.544 6.091.134.037.268.055.401.055.657 0 1.261-.436 1.445-1.101.221-.798-.248-1.625-1.046-1.846-1.797-.497-3.921-1.377-4.402-3.787-.852-4.267-5.203-6.002-5.388-6.074-.772-.3-1.641.083-1.941.854-.3.773.082 1.642.854 1.942z"/></g></svg>