<svg enable-background="new 0 0 512 512" height="512" viewBox="0 0 512 512" width="512" xmlns="http://www.w3.org/2000/svg" fill="white"><g id="_x31_8_Chart"><g><path d="m153.047 225.468c-23.678 0-42.938 19.264-42.938 42.938s19.26 42.93 42.938 42.93c23.674 0 42.934-19.256 42.934-42.93 0-12.65-5.532-24.006-14.266-31.871l44.944-60.178c5.472 2.533 11.54 3.987 17.956 3.987 6.515 0 12.672-1.501 18.209-4.11l36.456 44.605c-6.444 7.513-10.365 17.249-10.365 27.898 0 23.674 19.264 42.93 42.938 42.93s42.93-19.256 42.93-42.93c0-10.615-3.893-20.325-10.298-27.828l52.656-62.675c6.061 3.277 12.991 5.142 20.35 5.142 23.674 0 42.93-19.264 42.93-42.938s-19.256-42.93-42.93-42.93-42.938 19.256-42.938 42.93c0 10.972 4.173 20.964 10.97 28.563l-52.466 62.449c-6.263-3.577-13.49-5.651-21.205-5.651-7.682 0-14.882 2.054-21.128 5.603l-35.72-43.702c7.744-7.771 12.54-18.482 12.54-30.294 0-23.674-19.256-42.93-42.93-42.93-23.678 0-42.938 19.256-42.938 42.93 0 11.925 4.894 22.723 12.77 30.511l-45.334 60.7c-4.968-2.014-10.383-3.149-16.065-3.149zm284.442-133.129c15.49 0 28.099 12.608 28.099 28.099 0 15.498-12.608 28.106-28.099 28.106-15.498 0-28.106-12.608-28.106-28.106 0-15.491 12.608-28.099 28.106-28.099zm-77.54 156.397c0 15.491-12.608 28.099-28.099 28.099-15.498 0-28.106-12.608-28.106-28.099 0-15.498 12.608-28.106 28.106-28.106 15.491 0 28.099 12.609 28.099 28.106zm-115.335-139.429c15.491 0 28.099 12.608 28.099 28.099 0 15.498-12.608 28.106-28.099 28.106-15.498 0-28.106-12.608-28.106-28.106 0-15.491 12.608-28.099 28.106-28.099zm-91.567 187.197c-15.498 0-28.106-12.608-28.106-28.099 0-15.498 12.608-28.106 28.106-28.106 15.494 0 28.102 12.608 28.102 28.106 0 15.491-12.608 28.099-28.102 28.099z"/><path d="m487.161 436.071h-410.904v-410.836c0-4.099-3.32-7.416-7.416-7.416s-7.416 3.317-7.416 7.416v113.547h-36.586c-4.095 0-7.416 3.317-7.416 7.416s3.32 7.416 7.416 7.416h36.586v64.83h-36.586c-4.095 0-7.416 3.317-7.416 7.416s3.32 7.416 7.416 7.416h36.586v64.823h-36.586c-4.095 0-7.416 3.317-7.416 7.416s3.32 7.416 7.416 7.416h36.586v64.83h-36.586c-4.095 0-7.416 3.317-7.416 7.416s3.32 7.416 7.416 7.416h36.586v50.896c0 4.099 3.32 7.416 7.416 7.416h45.57v35.862c0 4.099 3.32 7.416 7.416 7.416 4.095 0 7.416-3.317 7.416-7.416v-35.862h64.826v35.862c0 4.099 3.32 7.416 7.416 7.416s7.416-3.317 7.416-7.416v-35.862h64.826v35.862c0 4.099 3.317 7.416 7.416 7.416s7.416-3.317 7.416-7.416v-35.862h64.83v35.862c0 4.099 3.317 7.416 7.416 7.416s7.416-3.317 7.416-7.416v-35.862h118.942c4.099 0 7.416-3.317 7.416-7.416s-3.319-7.418-7.418-7.418z"/><path d="m145.631 346.249v64.982c0 4.099 3.32 7.416 7.416 7.416s7.416-3.317 7.416-7.416v-64.982c0-4.099-3.32-7.416-7.416-7.416s-7.416 3.317-7.416 7.416z"/><path d="m237.198 221.326v189.906c0 4.099 3.32 7.416 7.416 7.416 4.099 0 7.416-3.317 7.416-7.416v-189.906c0-4.099-3.317-7.416-7.416-7.416-4.095 0-7.416 3.317-7.416 7.416z"/><path d="m328.758 346.249v64.982c0 4.099 3.317 7.416 7.416 7.416s7.416-3.317 7.416-7.416v-64.982c0-4.099-3.317-7.416-7.416-7.416s-7.416 3.317-7.416 7.416z"/><path d="m430.073 229.719v181.512c0 4.099 3.317 7.416 7.416 7.416s7.416-3.317 7.416-7.416v-181.512c0-4.099-3.317-7.416-7.416-7.416s-7.416 3.317-7.416 7.416z"/></g></g></svg>