<?xml version="1.0" encoding="UTF-8" standalone="no"?>
<!-- Created with Inkscape (http://www.inkscape.org/) -->

<svg
   version="1.1"
   id="svg1779"
   xml:space="preserve"
   width="682.66669"
   height="682.66669"
   viewBox="0 0 682.66669 682.66669"
   xmlns="http://www.w3.org/2000/svg"
   xmlns:svg="http://www.w3.org/2000/svg"><defs
     id="defs1783"><clipPath
       clipPathUnits="userSpaceOnUse"
       id="clipPath1793"><path
         d="M 0,512 H 512 V 0 H 0 Z"
         id="path1791" /></clipPath><clipPath
       clipPathUnits="userSpaceOnUse"
       id="clipPath1817"><path
         d="M 0,512 H 512 V 0 H 0 Z"
         id="path1815" /></clipPath><clipPath
       clipPathUnits="userSpaceOnUse"
       id="clipPath1837"><path
         d="M 0,512 H 512 V 0 H 0 Z"
         id="path1835" /></clipPath></defs><g
     id="g1785"
     transform="matrix(1.3333333,0,0,-1.3333333,0,682.66667)"><g
       id="g1787"><g
         id="g1789"
         clip-path="url(#clipPath1793)"><g
           id="g1795"
           transform="translate(161.9238,487.0889)"><path
             d="M 0,0 V 14.48"
             style="fill:none;stroke:#f55f8d;stroke-width:15;stroke-linecap:round;stroke-linejoin:round;stroke-miterlimit:10;stroke-dasharray:none;stroke-opacity:1"
             id="path1797" /></g></g></g><g
       id="g1799"
       transform="translate(257.2275,447.6128)"><path
         d="M 0,0 10.24,10.239"
         style="fill:none;stroke:#f55f8d;stroke-width:15;stroke-linecap:round;stroke-linejoin:round;stroke-miterlimit:10;stroke-dasharray:none;stroke-opacity:1"
         id="path1801" /></g><g
       id="g1803"
       transform="translate(56.3809,246.7656)"><path
         d="M 0,0 10.239,10.239"
         style="fill:none;stroke:#f55f8d;stroke-width:15;stroke-linecap:round;stroke-linejoin:round;stroke-miterlimit:10;stroke-dasharray:none;stroke-opacity:1"
         id="path1805" /></g><g
       id="g1807"
       transform="translate(296.7041,352.3086)"><path
         d="M 0,0 H 14.48"
         style="fill:none;stroke:#f55f8d;stroke-width:15;stroke-linecap:round;stroke-linejoin:round;stroke-miterlimit:10;stroke-dasharray:none;stroke-opacity:1"
         id="path1809" /></g><g
       id="g1811"><g
         id="g1813"
         clip-path="url(#clipPath1817)"><g
           id="g1819"
           transform="translate(12.6631,352.3086)"><path
             d="M 0,0 H 14.481"
             style="fill:none;stroke:#f55f8d;stroke-width:15;stroke-linecap:round;stroke-linejoin:round;stroke-miterlimit:10;stroke-dasharray:none;stroke-opacity:1"
             id="path1821" /></g></g></g><g
       id="g1823"
       transform="translate(257.2275,257.0049)"><path
         d="M 0,0 9.383,-9.383"
         style="fill:none;stroke:#f55f8d;stroke-width:15;stroke-linecap:round;stroke-linejoin:round;stroke-miterlimit:10;stroke-dasharray:none;stroke-opacity:1"
         id="path1825" /></g><g
       id="g1827"
       transform="translate(56.3809,457.8521)"><path
         d="M 0,0 10.239,-10.239"
         style="fill:none;stroke:#f55f8d;stroke-width:15;stroke-linecap:round;stroke-linejoin:round;stroke-miterlimit:10;stroke-dasharray:none;stroke-opacity:1"
         id="path1829" /></g><g
       id="g1831"><g
         id="g1833"
         clip-path="url(#clipPath1837)"><g
           id="g1839"
           transform="translate(357.3994,7.5)"><path
             d="m 0,0 -197.222,0.188 c -9.789,0.01 -17.719,7.948 -17.719,17.737 v 24.394 c 0,10.441 8.973,18.622 19.369,17.661 L 1.65,41.744 C 10.774,40.9 17.753,33.246 17.753,24.083 V 17.736 C 17.753,7.934 9.802,-0.009 0,0 Z"
             style="fill:none;stroke:#f55f8d;stroke-width:15;stroke-linecap:round;stroke-linejoin:round;stroke-miterlimit:10;stroke-dasharray:none;stroke-opacity:1"
             id="path1841" /></g><g
           id="g1843"
           transform="translate(161.9238,331.6455)"><path
             d="m 0,0 c -10.244,0 -18.548,8.304 -18.548,18.548 0,10.244 8.304,18.548 18.548,18.548 10.244,0 18.548,-8.304 18.548,-18.548 C 18.548,8.304 10.244,0 0,0 Z m 54.803,31.862 c -8.362,0 -12.55,10.11 -6.637,16.023 4.099,4.099 4.099,10.745 0,14.844 l -3.984,3.985 c -4.099,4.099 -10.745,4.099 -14.845,0 -5.913,-5.913 -16.023,-1.725 -16.023,6.637 0,5.797 -4.699,10.496 -10.497,10.496 h -5.634 c -5.797,0 -10.497,-4.699 -10.497,-10.496 0,-8.362 -10.11,-12.55 -16.023,-6.637 v 0 c -4.099,4.099 -10.745,4.099 -14.844,0 l -3.985,-3.985 c -4.099,-4.099 -4.099,-10.745 0,-14.844 5.914,-5.913 1.726,-16.023 -6.637,-16.023 -5.797,0 -10.496,-4.699 -10.496,-10.497 V 15.73 c 0,-5.796 4.699,-10.496 10.496,-10.496 8.363,0 12.551,-10.11 6.637,-16.024 -4.099,-4.099 -4.099,-10.744 0,-14.843 l 3.985,-3.985 c 4.099,-4.099 10.745,-4.099 14.844,0 v 0 c 5.913,5.913 16.023,1.725 16.023,-6.637 0,-5.797 4.7,-10.496 10.497,-10.496 h 5.634 c 5.798,0 10.497,4.699 10.497,10.496 0,8.362 10.11,12.55 16.023,6.637 4.1,-4.099 10.746,-4.099 14.845,0 l 3.984,3.985 c 4.099,4.099 4.099,10.744 0,14.843 -5.913,5.914 -1.725,16.024 6.637,16.024 5.797,0 10.496,4.7 10.496,10.496 v 5.635 c 0,5.798 -4.699,10.497 -10.496,10.497 z"
             style="fill:none;stroke:#f55f8d;stroke-width:15;stroke-linecap:round;stroke-linejoin:round;stroke-miterlimit:10;stroke-dasharray:none;stroke-opacity:1"
             id="path1845" /></g><g
           id="g1847"
           transform="translate(346.3291,50.4199)"><path
             d="M 0,0 V 24.814 C 0,36.295 10.191,45.101 21.55,43.435 L 73.949,35.75 c 18.868,-2.768 35.796,11.857 35.797,30.927 l 0.002,60.618 c 10e-4,11.926 9.73,21.561 21.655,21.446 v 0 c 15.862,0 26.302,16.538 19.481,30.858 l -22.387,46.996 c -1.334,2.8 -2.045,5.856 -2.083,8.958 l -0.428,34.517 c 0,100.606 -80.784,183.66 -181.39,184.009 -33.915,0.117 -65.679,-9.044 -92.904,-25.087"
             style="fill:none;stroke:#f55f8d;stroke-width:15;stroke-linecap:round;stroke-linejoin:round;stroke-miterlimit:10;stroke-dasharray:none;stroke-opacity:1"
             id="path1849" /></g><g
           id="g1851"
           transform="translate(172.7808,98.1802)"><path
             d="M 0,0 V -31.713"
             style="fill:none;stroke:#f55f8d;stroke-width:15;stroke-linecap:round;stroke-linejoin:round;stroke-miterlimit:10;stroke-dasharray:none;stroke-opacity:1"
             id="path1853" /></g><g
           id="g1855"
           transform="translate(210.3701,221.5591)"><path
             d="m 0,0 c 5.5,23.045 16.34,44.66 31.787,63.068 15.262,18.188 24.454,41.641 24.454,67.243 0,58.314 -47.679,105.492 -106.181,104.676 -57.393,-0.8 -103.793,-48.41 -103.187,-105.804 0.263,-24.924 9.237,-47.757 24.022,-65.603 15.464,-18.668 26.516,-40.396 32.136,-63.584"
             style="fill:none;stroke:#f55f8d;stroke-width:15;stroke-linecap:round;stroke-linejoin:round;stroke-miterlimit:10;stroke-dasharray:none;stroke-opacity:1"
             id="path1857" /></g><g
           id="g1859"
           transform="translate(209.8652,166.1763)"><path
             d="m 0,0 h -95.882 c -5.296,0 -9.589,4.293 -9.589,9.588 V 45.82 c 0,5.296 4.293,9.588 9.589,9.588 H 0 c 5.295,0 9.588,-4.292 9.588,-9.588 V 9.588 C 9.588,4.293 5.295,0 0,0 Z"
             style="fill:none;stroke:#f55f8d;stroke-width:15;stroke-linecap:round;stroke-linejoin:round;stroke-miterlimit:10;stroke-dasharray:none;stroke-opacity:1"
             id="path1861" /></g><g
           id="g1863"
           transform="translate(116.4829,166.1763)"><path
             d="M 0,0 V -2.259 C 0,-19.187 13.723,-32.91 30.65,-32.91 h 31.691 c 16.928,0 30.65,13.723 30.65,30.651 V 0"
             style="fill:none;stroke:#f55f8d;stroke-width:15;stroke-linecap:round;stroke-linejoin:round;stroke-miterlimit:10;stroke-dasharray:none;stroke-opacity:1"
             id="path1865" /></g></g></g></g></svg>
